<?xml version="1.0" encoding="UTF-8"?>
<svg id="Calque_1" data-name="Calque 1" xmlns="http://www.w3.org/2000/svg" viewBox="0 0 300 300">
  <defs>
    <style>
      .cls-1 {
        fill: #fff;
      }

      .cls-2 {
        fill: #b10000;
      }
    </style>
  </defs>
  <circle class="cls-2" cx="150" cy="116.11" r="92.87"/>
  <g>
    <path class="cls-2" d="M86.32,246.69c-1.61,0-2.95-.23-4.03-.68s-1.89-1.08-2.46-1.88-.87-1.74-.92-2.82h3.9c.16.66.48,1.17.97,1.55.49.37,1.34.56,2.53.56s2.14-.17,2.69-.51c.54-.34.82-.82.82-1.44,0-.52-.16-.94-.48-1.26s-.81-.6-1.47-.84c-.66-.24-1.52-.47-2.57-.68-1.25-.24-2.31-.58-3.2-1.01-.88-.43-1.55-1.02-2-1.77-.45-.74-.68-1.69-.68-2.83,0-1.06.28-1.97.83-2.74.55-.77,1.35-1.37,2.39-1.81,1.04-.43,2.26-.65,3.66-.65,1.52,0,2.78.21,3.75.62s1.72,1.01,2.23,1.78c.51.77.81,1.68.9,2.71h-3.9c-.12-.62-.4-1.09-.83-1.39-.43-.3-1.15-.45-2.16-.45s-1.78.16-2.26.49c-.49.33-.73.77-.73,1.33,0,.66.33,1.18,1,1.57.67.39,1.72.72,3.16,1,.99.19,1.87.42,2.64.69s1.42.62,1.96,1.06c.54.44.94.98,1.22,1.61.28.63.42,1.39.42,2.27,0,1.11-.29,2.08-.87,2.91-.58.83-1.42,1.47-2.52,1.92s-2.44.68-4.01.68Z"/>
    <path class="cls-2" d="M100.53,246.69c-.97,0-1.8-.19-2.49-.56-.69-.37-1.22-.89-1.58-1.55-.36-.66-.55-1.4-.55-2.23,0-1.39.41-2.42,1.23-3.12.82-.69,2.06-1.04,3.7-1.04h4.1v-.65c0-.9-.2-1.53-.61-1.9-.41-.36-1.05-.55-1.94-.55-.78,0-1.34.13-1.69.4s-.54.6-.57,1h-3.46c.05-.78.31-1.49.77-2.13.46-.64,1.12-1.15,1.97-1.52.86-.37,1.89-.56,3.1-.56s2.2.17,3.08.52c.87.35,1.55.91,2.04,1.69.48.78.73,1.81.73,3.09v5.27c0,.73.01,1.36.04,1.91.03.55.07,1.08.14,1.6h-3.2c-.07-.38-.11-.67-.12-.87s-.01-.5-.01-.9c-.38.57-.96,1.06-1.73,1.47s-1.76.61-2.97.61ZM101.62,244.04c.55,0,1.09-.1,1.6-.3.51-.2.93-.51,1.25-.94s.48-.97.48-1.62v-.65h-3.46c-.66,0-1.17.15-1.55.45-.37.3-.56.71-.56,1.23,0,.55.19,1,.57,1.32.38.33.93.49,1.66.49Z"/>
    <path class="cls-2" d="M115.62,246.38l-5.82-13.77h3.87l3.71,9.48,3.43-9.48h3.53l-5.3,13.77h-3.43Z"/>
    <path class="cls-2" d="M131.88,246.69c-1.26,0-2.42-.26-3.46-.77s-1.87-1.29-2.49-2.35c-.62-1.06-.94-2.37-.94-3.95v-.52c0-1.49.31-2.74.94-3.75.62-1.01,1.45-1.77,2.49-2.29,1.04-.51,2.19-.77,3.46-.77s2.42.26,3.46.77c1.04.51,1.87,1.27,2.49,2.29s.94,2.26.94,3.75v.52c0,1.54-.31,2.84-.94,3.9-.62,1.06-1.46,1.85-2.49,2.38-1.04.53-2.19.79-3.46.79ZM131.88,243.78c.66,0,1.24-.16,1.74-.47.5-.31.9-.77,1.21-1.39.3-.61.45-1.38.45-2.3v-.52c0-.85-.15-1.56-.45-2.13-.3-.57-.71-1.01-1.21-1.31-.5-.3-1.08-.45-1.74-.45s-1.22.15-1.73.45c-.51.3-.92.74-1.22,1.31-.3.57-.45,1.28-.45,2.13v.52c0,.94.15,1.71.45,2.31.3.61.71,1.07,1.22,1.38.51.31,1.09.47,1.73.47Z"/>
    <path class="cls-2" d="M143.21,231.31c-.61,0-1.1-.19-1.49-.58s-.58-.89-.58-1.49.19-1.1.58-1.49.89-.58,1.49-.58,1.1.19,1.49.58.58.89.58,1.49-.2,1.1-.58,1.49-.89.58-1.49.58ZM141.49,246.38v-13.77h3.43v13.77h-3.43Z"/>
    <path class="cls-2" d="M148.27,246.38v-13.77h3.17v2.03c.17-.4.43-.77.77-1.12.34-.35.75-.64,1.23-.87.48-.23,1.01-.35,1.58-.35.33,0,.61.02.84.05.23.03.38.06.45.08v3.06c-.17-.07-.39-.13-.66-.19-.27-.06-.63-.09-1.08-.09-.69,0-1.25.15-1.68.44-.42.29-.73.68-.92,1.17s-.29,1-.29,1.53v8.03h-3.43Z"/>
    <path class="cls-2" d="M156.22,240.72v-3.22h8.31v3.22h-8.31Z"/>
    <path class="cls-2" d="M167.65,246.38v-10.91h-1.69v-2.86h1.69v-.52c0-.9.16-1.65.48-2.23s.84-1.04,1.55-1.35,1.68-.47,2.91-.47c.26,0,.58,0,.97.01.39,0,.71.03.97.06v2.91c-.26-.03-.54-.06-.84-.06-.3,0-.58-.01-.84-.01-.66,0-1.12.11-1.38.34s-.39.58-.39,1.06v.26h3.2v2.86h-3.2v10.91h-3.43Z"/>
    <path class="cls-2" d="M179.94,246.69c-.97,0-1.8-.19-2.49-.56-.69-.37-1.22-.89-1.58-1.55-.36-.66-.55-1.4-.55-2.23,0-1.39.41-2.42,1.23-3.12.82-.69,2.06-1.04,3.7-1.04h4.1v-.65c0-.9-.2-1.53-.61-1.9-.41-.36-1.05-.55-1.94-.55-.78,0-1.34.13-1.69.4s-.54.6-.57,1h-3.46c.05-.78.31-1.49.77-2.13.46-.64,1.12-1.15,1.97-1.52.86-.37,1.89-.56,3.1-.56s2.2.17,3.08.52c.87.35,1.55.91,2.04,1.69.48.78.73,1.81.73,3.09v5.27c0,.73.01,1.36.04,1.91.03.55.07,1.08.14,1.6h-3.2c-.07-.38-.11-.67-.12-.87s-.01-.5-.01-.9c-.38.57-.96,1.06-1.73,1.47s-1.76.61-2.97.61ZM181.03,244.04c.55,0,1.09-.1,1.6-.3.51-.2.93-.51,1.25-.94s.48-.97.48-1.62v-.65h-3.46c-.66,0-1.17.15-1.55.45-.37.3-.56.71-.56,1.23,0,.55.19,1,.57,1.32.38.33.93.49,1.66.49Z"/>
    <path class="cls-2" d="M192.75,231.31c-.61,0-1.1-.19-1.49-.58s-.58-.89-.58-1.49.19-1.1.58-1.49.89-.58,1.49-.58,1.1.19,1.49.58.58.89.58,1.49-.2,1.1-.58,1.49-.89.58-1.49.58ZM191.03,246.38v-13.77h3.43v13.77h-3.43Z"/>
    <path class="cls-2" d="M197.81,246.38v-13.77h3.17v2.03c.17-.4.43-.77.77-1.12.34-.35.75-.64,1.23-.87.48-.23,1.01-.35,1.58-.35.33,0,.61.02.84.05.23.03.38.06.45.08v3.06c-.17-.07-.39-.13-.66-.19-.27-.06-.63-.09-1.08-.09-.69,0-1.25.15-1.68.44-.42.29-.73.68-.92,1.17s-.29,1-.29,1.53v8.03h-3.43Z"/>
    <path class="cls-2" d="M213.92,246.69c-1.25,0-2.39-.26-3.44-.77-1.05-.51-1.88-1.29-2.51-2.34-.62-1.05-.94-2.37-.94-3.96v-.52c0-1.52.3-2.79.9-3.79s1.39-1.76,2.39-2.26c1-.5,2.11-.75,3.34-.75,2.17,0,3.81.57,4.94,1.71s1.69,2.8,1.69,4.96v1.46h-9.74c.04.81.21,1.48.53,1.99s.73.88,1.23,1.12c.5.23,1.04.35,1.61.35.88,0,1.55-.13,2-.39.45-.26.77-.64.96-1.14h3.14c-.28,1.42-.96,2.5-2.05,3.23-1.09.74-2.44,1.1-4.05,1.1ZM213.79,235.11c-.54,0-1.05.09-1.54.27-.49.18-.89.49-1.2.92-.3.43-.47,1.01-.51,1.74h6.39c-.02-.78-.17-1.38-.44-1.81-.28-.42-.65-.72-1.12-.88s-1-.25-1.58-.25Z"/>
    <path class="cls-2" d="M79.71,274.74c-1.07,0-1.96-.15-2.65-.45-.69-.3-1.2-.79-1.53-1.47-.33-.68-.49-1.56-.49-2.65v-6.49h-1.82v-2.86h1.82v-3.12h3.43v3.12h3.33v2.86h-3.33v5.98c0,.78.14,1.34.43,1.68.29.34.82.51,1.6.51.52,0,1.04-.03,1.56-.08v2.86c-.33.03-.67.06-1.03.09-.36.03-.79.04-1.31.04Z"/>
    <path class="cls-2" d="M84.51,274.58v-13.77h3.17v2.03c.17-.4.43-.77.77-1.12.34-.35.75-.64,1.23-.87.48-.23,1.01-.35,1.58-.35.33,0,.61.02.84.05.23.03.38.06.45.08v3.06c-.17-.07-.39-.13-.66-.19-.27-.06-.63-.09-1.08-.09-.69,0-1.25.15-1.68.44-.42.29-.73.68-.92,1.17s-.29,1-.29,1.53v8.03h-3.43Z"/>
    <path class="cls-2" d="M98.33,274.89c-.97,0-1.8-.19-2.49-.56-.69-.37-1.22-.89-1.58-1.55-.36-.66-.55-1.4-.55-2.23,0-1.39.41-2.42,1.23-3.12.82-.69,2.06-1.04,3.7-1.04h4.1v-.65c0-.9-.2-1.53-.61-1.9-.41-.36-1.05-.55-1.94-.55-.78,0-1.34.13-1.69.4s-.54.6-.57,1h-3.46c.05-.78.31-1.49.77-2.13.46-.64,1.12-1.15,1.97-1.52.86-.37,1.89-.56,3.1-.56s2.2.17,3.08.52c.87.35,1.55.91,2.04,1.69.48.78.73,1.81.73,3.09v5.27c0,.73.01,1.36.04,1.91.03.55.07,1.08.14,1.6h-3.2c-.07-.38-.11-.67-.12-.87s-.01-.5-.01-.9c-.38.57-.96,1.06-1.73,1.47s-1.76.61-2.97.61ZM99.42,272.25c.55,0,1.09-.1,1.6-.3.51-.2.93-.51,1.25-.94s.48-.97.48-1.62v-.65h-3.46c-.66,0-1.17.15-1.55.45-.37.3-.56.71-.56,1.23,0,.55.19,1,.57,1.32.38.33.93.49,1.66.49Z"/>
    <path class="cls-2" d="M114.36,274.89c-1.19,0-2.23-.26-3.1-.78-.87-.52-1.55-1.3-2.03-2.35-.48-1.05-.71-2.36-.71-3.94v-.52c0-1.49.23-2.74.7-3.74.47-1,1.15-1.77,2.04-2.29.89-.52,1.92-.78,3.08-.78.95,0,1.79.2,2.51.61.72.41,1.3.94,1.75,1.6v-6.31h3.43v18.18h-3.22v-2.03c-.33.64-.87,1.19-1.61,1.65-.75.46-1.69.69-2.83.69ZM115.17,271.99c.69,0,1.29-.13,1.81-.39.51-.26.91-.66,1.19-1.21.29-.55.43-1.23.43-2.04v-1.56c0-.76-.15-1.39-.44-1.88-.29-.49-.71-.87-1.23-1.12s-1.11-.38-1.75-.38c-.94,0-1.7.32-2.29.97s-.88,1.62-.88,2.92v.52c0,1.4.3,2.45.91,3.13.61.68,1.36,1.03,2.26,1.03Z"/>
    <path class="cls-2" d="M127.12,259.52c-.61,0-1.1-.19-1.49-.58s-.58-.89-.58-1.49.19-1.1.58-1.49.89-.58,1.49-.58,1.1.19,1.49.58.58.89.58,1.49-.2,1.1-.58,1.49-.89.58-1.49.58ZM125.4,274.58v-13.77h3.43v13.77h-3.43Z"/>
    <path class="cls-2" d="M137.77,274.74c-1.07,0-1.96-.15-2.65-.45-.69-.3-1.2-.79-1.53-1.47-.33-.68-.49-1.56-.49-2.65v-6.49h-1.82v-2.86h1.82v-3.12h3.43v3.12h3.33v2.86h-3.33v5.98c0,.78.14,1.34.43,1.68.29.34.82.51,1.6.51.52,0,1.04-.03,1.56-.08v2.86c-.33.03-.67.06-1.03.09-.36.03-.79.04-1.31.04Z"/>
    <path class="cls-2" d="M144.55,259.52c-.61,0-1.1-.19-1.49-.58s-.58-.89-.58-1.49.19-1.1.58-1.49.89-.58,1.49-.58,1.1.19,1.49.58.58.89.58,1.49-.2,1.1-.58,1.49-.89.58-1.49.58ZM142.83,274.58v-13.77h3.43v13.77h-3.43Z"/>
    <path class="cls-2" d="M155.85,274.89c-1.26,0-2.42-.26-3.46-.77s-1.87-1.29-2.49-2.35c-.62-1.06-.94-2.37-.94-3.95v-.52c0-1.49.31-2.74.94-3.75.62-1.01,1.45-1.77,2.49-2.29,1.04-.51,2.19-.77,3.46-.77s2.42.26,3.46.77c1.04.51,1.87,1.27,2.49,2.29s.94,2.26.94,3.75v.52c0,1.54-.31,2.84-.94,3.9-.62,1.06-1.46,1.85-2.49,2.38-1.04.53-2.19.79-3.46.79ZM155.85,271.99c.66,0,1.24-.16,1.74-.47.5-.31.9-.77,1.21-1.39.3-.61.45-1.38.45-2.3v-.52c0-.85-.15-1.56-.45-2.13-.3-.57-.71-1.01-1.21-1.31-.5-.3-1.08-.45-1.74-.45s-1.22.15-1.73.45c-.51.3-.92.74-1.22,1.31-.3.57-.45,1.28-.45,2.13v.52c0,.94.15,1.71.45,2.31.3.61.71,1.07,1.22,1.38.51.31,1.09.47,1.73.47Z"/>
    <path class="cls-2" d="M165.2,274.58v-13.77h3.17v2.03c.33-.62.86-1.17,1.6-1.64s1.74-.7,3-.7c1.66,0,2.91.45,3.73,1.34.82.89,1.23,2.2,1.23,3.91v8.83h-3.46v-8.05c0-1.04-.21-1.82-.62-2.34-.42-.52-1.14-.78-2.18-.78-.71,0-1.29.14-1.74.43s-.78.67-.99,1.14c-.21.48-.31.99-.31,1.55v8.05h-3.43Z"/>
    <path class="cls-2" d="M187.15,274.89c-1.25,0-2.39-.26-3.44-.77-1.05-.51-1.88-1.29-2.51-2.34-.62-1.05-.94-2.37-.94-3.96v-.52c0-1.52.3-2.79.9-3.79s1.39-1.76,2.39-2.26c1-.5,2.11-.75,3.34-.75,2.17,0,3.81.57,4.94,1.71s1.69,2.8,1.69,4.96v1.46h-9.74c.04.81.21,1.48.53,1.99s.73.88,1.23,1.12c.5.23,1.04.35,1.61.35.88,0,1.55-.13,2-.39.45-.26.77-.64.96-1.14h3.14c-.28,1.42-.96,2.5-2.05,3.23-1.09.74-2.44,1.1-4.05,1.1ZM187.02,263.31c-.54,0-1.05.09-1.54.27-.49.18-.89.49-1.2.92-.3.43-.47,1.01-.51,1.74h6.39c-.02-.78-.17-1.38-.44-1.81-.28-.42-.65-.72-1.12-.88s-1-.25-1.58-.25Z"/>
    <path class="cls-2" d="M200.66,274.74c-1.06,0-1.92-.14-2.6-.42-.67-.28-1.17-.76-1.48-1.45s-.47-1.65-.47-2.88v-13.59h3.43v13.17c0,.88.13,1.48.39,1.79s.76.47,1.51.47c.19,0,.36,0,.49-.01.14,0,.28-.02.42-.04v2.88c-.09.02-.23.03-.44.05-.21.02-.43.03-.66.03h-.58Z"/>
    <path class="cls-2" d="M209.23,274.74c-1.06,0-1.92-.14-2.6-.42-.67-.28-1.17-.76-1.48-1.45s-.47-1.65-.47-2.88v-13.59h3.43v13.17c0,.88.13,1.48.39,1.79s.76.47,1.51.47c.19,0,.36,0,.49-.01.14,0,.28-.02.42-.04v2.88c-.09.02-.23.03-.44.05-.21.02-.43.03-.66.03h-.58Z"/>
    <path class="cls-2" d="M219.1,274.89c-1.25,0-2.39-.26-3.44-.77-1.05-.51-1.88-1.29-2.51-2.34-.62-1.05-.94-2.37-.94-3.96v-.52c0-1.52.3-2.79.9-3.79s1.39-1.76,2.39-2.26c1-.5,2.11-.75,3.34-.75,2.17,0,3.81.57,4.94,1.71s1.69,2.8,1.69,4.96v1.46h-9.74c.04.81.21,1.48.53,1.99s.73.88,1.23,1.12c.5.23,1.04.35,1.61.35.88,0,1.55-.13,2-.39.45-.26.77-.64.96-1.14h3.14c-.28,1.42-.96,2.5-2.05,3.23-1.09.74-2.44,1.1-4.05,1.1ZM218.97,263.31c-.54,0-1.05.09-1.54.27-.49.18-.89.49-1.2.92-.3.43-.47,1.01-.51,1.74h6.39c-.02-.78-.17-1.38-.44-1.81-.28-.42-.65-.72-1.12-.88s-1-.25-1.58-.25Z"/>
  </g>
  <path class="cls-1" d="M214.51,77.12c.51,5.9-7.02,10.36-12.37,9.9-.31,1.45.19.99.79,1.38,1.46.94,5.93,1.94,5.77,3.87-1.33,3.87-6.32,5.57-9.96,4.03l-.85.9c1.03,2.41.4,5.94-.38,8.39-.97,3.07-3.04,4.12-4.08,6.44-2.31,5.15.72,9.11-3.97,13.35-.8.72-2.26.94-2.63,1.39-1.4,1.67-.23,8.13-1.56,11.12-1.34,3.02-5.27,3.04-5.89,5.86l-2.02,23.65-8.33-.58-2.24-15.08c-.12-.52-.44-.77-.93-.94-1.73-.58-11.37,1.54-14.14,1.77-11.69.98-23.65,1.01-34.94-2.47l-2.63,16.55-8.45.7c-1.13-8.75-2.73-17.53-3.7-26.3-1.19-10.84-4.13-33.36-.38-42.91.7-1.79,1.98-3.23,2.78-4.95-3.31.11-5.63,2.28-6.83,5.23-1.98,4.88-2.53,20.04-1.88,25.41.12,1,3.24,3.11,3.19,8.02-.02,1.94-2.72,13.8-3.8,14.51-2.05,1.35-4.25-5.81-4.63-7.37-.77-3.16-1.38-8.06-.63-11.21.55-2.29,2.5-2.98,2.81-4.61.55-2.85-.21-7.31.02-10.5.54-7.37.72-19.21,9.14-21.78,1.49-.46,8.65-1.25,10.34-1.29,3.73-.09,9,1.52,12.97,1.75,7.61.44,29.85,1.17,36.38-.17.89-.18,4.93-2.22,5.84-2.8.61-.39,1.1.07.8-1.38-4.01.39-10.73-2.96-11.96-6.92-.28-.89-.85-2.6.57-2.91s8.57,2.17,11.1,2.39c7.11.63,17.06-.71,24.76-.64,2.86.03,5.48.82,8.66.67,4.56-.21,8.75-2.12,13.27-2.5ZM174.93,93.2v10.83c0,1.1,4.44,6.23,5.14,9.08.99,3.98-1.08,11.45,5.65,11,5.32-.35,3.65-8.33,5-12.33.77-2.29,4.62-6.64,4.62-7.75v-10.83c2.55-.18,7.02,1.58,9.29.32,1.15-.64.19-1-.41-1.47-1.79-1.37-8.19-3.39-7.58-5.85s5.67-1.45,7.98-1.97c1.3-.29,4.98-1.92,5.25-3.42-4.54,1.28-8.93,1.37-13.63,1.27-1.92-.04-3.6-.66-5.51-.68-10.26-.09-20.6,1.72-30.65-.58,1.45,2.05,4.79,3.23,7.16,3.66,1.83.33,5.76-.76,6.38,1.71.82,3.27-8.1,4.07-7.36,7.61l8.66-.62ZM172.45,96.29c-1.88.21-3.08.76-5.09.48-2.77-.39-4.09-2.7-6.31-2.99-3.26-.43-6.33.61-9.29.68-6.19.14-13.08.26-19.23,0-6.09-.25-15.56-2.35-21.04-1.91-3.94.32-6,3.32-7.39,6.84-3.21,8.16-1.13,25.16-.24,34.25,1.02,10.43,2.86,20.89,4.31,31.26,1.3.19,3.31-.02,3.86-1.32,1.62-3.82.73-11.73,2.39-15.5.3-.69.52-1.13,1.38-1.05,17.11,5.72,35.44,2.63,52.9.65l2.57,17.22,3.61.03c.82-.78,1.26-19.17,2.02-22.41.75-3.22,4.9-3.65,5.74-5.39.69-1.42,1.43-9.39.64-10.54-.33-.48-1.99-.8-2.84-1.49-3.78-3.06-1.82-8.04-3.5-12.59-1.06-2.87-3.42-4.2-4.24-6.9-.89-2.93-1.02-6.36-.28-9.31ZM94.5,140.21c.84-3.69,3.31-11.77-.91-13.6-2.14.47-1.65,12.4.91,13.6Z"/>
</svg>