<?xml version="1.0" encoding="UTF-8"?>
<svg id="Calque_1" data-name="Calque 1" xmlns="http://www.w3.org/2000/svg" viewBox="0 0 300 300">
  <defs>
    <style>
      .cls-1 {
        fill: #fff;
      }

      .cls-2 {
        fill: #b10000;
      }
    </style>
  </defs>
  <circle class="cls-2" cx="150" cy="130.21" r="92.87"/>
  <g>
    <path class="cls-2" d="M81.03,260.79c-1.58,0-2.98-.31-4.22-.94s-2.21-1.61-2.91-2.97c-.7-1.36-1.05-3.15-1.05-5.36v-.52c0-1.59.21-2.96.62-4.1s1-2.08,1.75-2.81c.75-.73,1.62-1.26,2.61-1.6.99-.34,2.05-.51,3.2-.51,1.04,0,2,.12,2.88.36.88.24,1.67.62,2.36,1.13.69.51,1.25,1.17,1.68,1.96.42.8.67,1.74.74,2.83h-4.05c-.21-1.04-.63-1.8-1.26-2.29-.63-.48-1.42-.73-2.35-.73-.71,0-1.38.18-2,.53-.62.36-1.13.95-1.53,1.78-.4.83-.6,1.97-.6,3.43v.52c0,1.14.12,2.1.38,2.87.25.77.57,1.38.96,1.83.39.45.83.78,1.31.99.48.21.98.31,1.48.31.99,0,1.8-.26,2.43-.77.63-.51,1.03-1.26,1.18-2.25h4.05c-.09,1.13-.33,2.09-.74,2.9-.41.81-.95,1.46-1.62,1.96-.68.5-1.47.87-2.38,1.09-.91.22-1.88.34-2.92.34Z"/>
    <path class="cls-2" d="M93.24,245.41c-.61,0-1.1-.19-1.49-.58s-.58-.89-.58-1.49.19-1.1.58-1.49.89-.58,1.49-.58,1.1.19,1.49.58.58.89.58,1.49-.19,1.1-.58,1.49-.89.58-1.49.58ZM91.53,260.48v-13.77h3.43v13.77h-3.43Z"/>
    <path class="cls-2" d="M98.31,260.48v-13.77h3.17v2.03c.17-.4.43-.77.77-1.12.34-.35.75-.64,1.23-.87s1.01-.35,1.58-.35c.33,0,.61.02.84.05s.39.06.45.08v3.06c-.17-.07-.39-.13-.66-.19-.27-.06-.63-.09-1.08-.09-.69,0-1.25.15-1.68.44-.42.29-.73.68-.92,1.17-.19.48-.29,1-.29,1.53v8.03h-3.43Z"/>
    <path class="cls-2" d="M114.28,260.79c-1.25,0-2.39-.26-3.42-.79-1.03-.53-1.84-1.32-2.44-2.36-.6-1.05-.9-2.35-.9-3.91v-.52c0-1.49.31-2.74.94-3.74.62-1,1.45-1.77,2.47-2.29,1.02-.52,2.14-.78,3.35-.78,1.3,0,2.4.22,3.31.66.91.44,1.61,1.04,2.09,1.79.48.75.76,1.6.83,2.53h-3.48c-.14-.64-.42-1.15-.84-1.52-.42-.37-1.06-.56-1.91-.56-.59,0-1.13.14-1.62.42-.49.28-.89.71-1.19,1.29-.3.58-.45,1.31-.45,2.19v.52c0,.97.14,1.76.43,2.38.29.62.68,1.07,1.17,1.35s1.05.43,1.68.43c.68,0,1.26-.18,1.74-.53.48-.35.82-.87,1.01-1.55h3.48c-.1.99-.43,1.86-.99,2.62-.55.76-1.28,1.35-2.18,1.75s-1.92.61-3.06.61Z"/>
    <path class="cls-2" d="M127.56,260.79c-1.61,0-2.82-.45-3.64-1.35-.81-.9-1.22-2.31-1.22-4.23v-8.49h3.43v8.03c0,1.04.21,1.82.62,2.35.42.53,1.1.79,2.05.79.69,0,1.25-.15,1.66-.44.42-.29.73-.68.94-1.16.21-.48.31-.99.31-1.55v-8.03h3.46v13.77h-3.17v-2.03c-.33.62-.85,1.17-1.57,1.64-.72.47-1.68.7-2.87.7Z"/>
    <path class="cls-2" d="M140.26,245.41c-.61,0-1.1-.19-1.49-.58s-.58-.89-.58-1.49.19-1.1.58-1.49.89-.58,1.49-.58,1.1.19,1.49.58.58.89.58,1.49-.19,1.1-.58,1.49-.89.58-1.49.58ZM138.54,260.48v-13.77h3.43v13.77h-3.43Z"/>
    <path class="cls-2" d="M150.91,260.64c-1.07,0-1.96-.15-2.65-.45-.69-.3-1.2-.79-1.53-1.47-.33-.68-.49-1.56-.49-2.65v-6.49h-1.82v-2.86h1.82v-3.12h3.43v3.12h3.33v2.86h-3.33v5.98c0,.78.14,1.34.43,1.68.29.34.82.51,1.6.51.52,0,1.04-.03,1.56-.08v2.86c-.33.03-.67.06-1.03.09-.35.03-.79.04-1.31.04Z"/>
    <path class="cls-2" d="M168.31,260.79c-1.25,0-2.39-.26-3.42-.79-1.03-.53-1.84-1.32-2.44-2.36-.6-1.05-.9-2.35-.9-3.91v-.52c0-1.49.31-2.74.94-3.74.62-1,1.45-1.77,2.47-2.29,1.02-.52,2.14-.78,3.35-.78,1.3,0,2.4.22,3.31.66.91.44,1.61,1.04,2.09,1.79.48.75.76,1.6.83,2.53h-3.48c-.14-.64-.42-1.15-.84-1.52-.42-.37-1.06-.56-1.91-.56-.59,0-1.13.14-1.62.42-.49.28-.89.71-1.19,1.29-.3.58-.45,1.31-.45,2.19v.52c0,.97.14,1.76.43,2.38.29.62.68,1.07,1.17,1.35s1.05.43,1.68.43c.68,0,1.26-.18,1.74-.53.48-.35.82-.87,1.01-1.55h3.48c-.1.99-.43,1.86-.99,2.62-.55.76-1.28,1.35-2.18,1.75s-1.92.61-3.06.61Z"/>
    <path class="cls-2" d="M183.1,260.79c-1.26,0-2.42-.26-3.46-.77s-1.87-1.29-2.49-2.35c-.62-1.06-.94-2.37-.94-3.95v-.52c0-1.49.31-2.74.94-3.75s1.46-1.77,2.49-2.29c1.04-.51,2.19-.77,3.46-.77s2.42.26,3.45.77c1.04.51,1.87,1.27,2.49,2.29s.94,2.26.94,3.75v.52c0,1.54-.31,2.84-.94,3.9-.62,1.06-1.45,1.85-2.49,2.38-1.04.53-2.19.79-3.45.79ZM183.1,257.88c.66,0,1.24-.16,1.74-.47.5-.31.9-.77,1.21-1.39.3-.61.45-1.38.45-2.3v-.52c0-.85-.15-1.56-.45-2.13-.3-.57-.71-1.01-1.21-1.31-.5-.3-1.08-.45-1.74-.45s-1.22.15-1.73.45c-.51.3-.92.74-1.22,1.31-.3.57-.45,1.28-.45,2.13v.52c0,.94.15,1.71.45,2.31.3.61.71,1.07,1.22,1.38.51.31,1.09.47,1.73.47Z"/>
    <path class="cls-2" d="M197.18,260.79c-1.61,0-2.82-.45-3.64-1.35-.81-.9-1.22-2.31-1.22-4.23v-8.49h3.43v8.03c0,1.04.21,1.82.62,2.35.42.53,1.1.79,2.05.79.69,0,1.25-.15,1.66-.44.42-.29.73-.68.94-1.16.21-.48.31-.99.31-1.55v-8.03h3.46v13.77h-3.17v-2.03c-.33.62-.85,1.17-1.57,1.64-.72.47-1.68.7-2.87.7Z"/>
    <path class="cls-2" d="M207.9,260.48v-13.77h3.17v2.03c.17-.4.43-.77.77-1.12.34-.35.75-.64,1.23-.87s1.01-.35,1.58-.35c.33,0,.61.02.84.05s.39.06.45.08v3.06c-.17-.07-.39-.13-.66-.19-.27-.06-.63-.09-1.08-.09-.69,0-1.25.15-1.68.44-.42.29-.73.68-.92,1.17-.19.48-.29,1-.29,1.53v8.03h-3.43Z"/>
    <path class="cls-2" d="M224.14,260.64c-1.07,0-1.96-.15-2.65-.45-.69-.3-1.2-.79-1.53-1.47-.33-.68-.49-1.56-.49-2.65v-6.49h-1.82v-2.86h1.82v-3.12h3.43v3.12h3.33v2.86h-3.33v5.98c0,.78.14,1.34.43,1.68.29.34.82.51,1.6.51.52,0,1.04-.03,1.56-.08v2.86c-.33.03-.67.06-1.03.09-.35.03-.79.04-1.31.04Z"/>
  </g>
  <g>
    <path class="cls-1" d="M185.97,89.88v10.73c0,1.15-3.07,1.15-3.07,0v-10.12l-22.69.62,1.84,3.97-2.46.93v14.91c0,.28-1.63-1.74.3-2.03,3.29-.48,7.62-2.25,11.23-2.89,5.25-.93,10.57-1.16,15.82-1.99l1.47.9-.59,1.85c-34.86,1.4-68.57,20.38-86.91,49.98-.52-.04-1.9.12-2.03-.01-1.29-1.25,4.58-8.37,5.52-9.8-2.98-2.01-6.52-3.13-9.64-4.78-1.72-.91-.84-2.69,1.07-2.35,3.11.56,8.01,3.03,9.48,5.88l10.12-10.73c-5.07-6.16-13.12-8.91-20.81-10.16l-.04-2.41c1.65-1.72,21.53,5.91,22.41,10.43l12.55-10.12c-9.16-6.7-19.74-10.65-30.92-12.52l-.35-1.87c1.41-2.15,19.09,4.26,22.06,5.49v-18.4l-1.55,1.83-2.04-1.41c.08-.87,7.88-14.14,8.85-15.09,1.49-1.46,14.16-9.05,15.88-9.26,5.51-.66,24.9-2.62,29.17-1.53,1.28.33,10.38,5.5,11.29,6.49s8.03,10.76,8.2,11.44c.2.79.23,1.22-.49,1.73l-3.7.29ZM179.66,77.8l-11.78-5.74-23.61,1.88c5.53,4.61,10.59,8,13.92,14.72l27.78-1.24-6.31-9.63ZM158.31,94.71c.48-.65-6.73-11.4-7.88-12.51-.92-.89-8.37-6.4-9.25-6.72-1.1-.4-1.28-.4-2.39,0-.66.24-11.03,6.74-11.5,7.23-.49.52-3.39,5.81-3.58,6.54l.02,26.38,9.04,5.44c8.21-4.5,15.01-7.66,24.1-10.15.21-.97-.04-1.27-.04-2.61,0-1.01-.53-12.1,0-12.93.24-.37,1.03-.46,1.46-.67Z"/>
    <path class="cls-1" d="M197.01,113.8l-.36,2.51c-36.23,3.29-62.97,25.57-80.7,55.95-1.69,2.9-7.62,15.89-8.79,16.97-.37.34-.63.7-1.22.64l-1.55-.96c16.52-38.57,48.41-72.3,92.61-75.11Z"/>
    <path class="cls-1" d="M142.91,193.99c-1.09,1.21-2.37.65-2.29-1.31.18-4.04,4.66-15.8,6.43-19.99,7.52-17.82,23.46-40.14,43.21-45.1,1.84-.46,9.32-2.46,7.37,1.24-25.72,3.24-42.97,29.55-50.92,52.11-.78,2.21-3.14,12.31-3.8,13.05Z"/>
    <path class="cls-1" d="M201.91,139.56l-.1,2.35c-11.17,4.67-20.11,14.78-26.15,25.06-1.58,2.7-5.89,13.08-7.18,14.28-.77.72-1.09.75-2.13.62-1.09-1.08,4.79-12.27,5.81-14.12,6.46-11.64,16.52-24.5,29.75-28.19Z"/>
    <path class="cls-1" d="M146.11,115.37v-16.49h-14.72v21.15l-.93,1.07-1.52-1.07v-22.95l.92-1.08h17.79l.92,1.08v17.21c0,.76-1.74,1.37-2.45,1.08Z"/>
    <path class="cls-1" d="M143.04,91.1l-8-.26-.49-8.23c.51-.82,7.51-1.2,8.23-.13l.26,8.62ZM140.59,84.97h-3.69v3.69h3.69v-3.69Z"/>
  </g>
</svg>