<?xml version="1.0" encoding="UTF-8"?>
<svg id="Calque_1" data-name="Calque 1" xmlns="http://www.w3.org/2000/svg" viewBox="0 0 300 300">
  <defs>
    <style>
      .cls-1 {
        fill: #fff;
      }

      .cls-2 {
        fill: #b10000;
      }
    </style>
  </defs>
  <circle class="cls-2" cx="150.53" cy="130.21" r="92.87"/>
  <g>
    <path class="cls-2" d="M37.09,260.48v-18.18h12.47v3.25h-8.57v4.52h7.79v3.14h-7.79v7.27h-3.9Z"/>
    <path class="cls-2" d="M52.03,260.48v-13.77h3.17v2.03c.17-.4.43-.77.77-1.12.34-.35.75-.64,1.23-.87s1.01-.35,1.58-.35c.33,0,.61.02.84.05s.39.06.45.08v3.06c-.17-.07-.39-.13-.66-.19-.27-.06-.63-.09-1.08-.09-.69,0-1.25.15-1.68.44-.42.29-.73.68-.92,1.17-.19.48-.29,1-.29,1.53v8.03h-3.43Z"/>
    <path class="cls-2" d="M65.85,260.79c-.97,0-1.8-.19-2.49-.56-.69-.37-1.22-.89-1.58-1.55-.36-.66-.55-1.4-.55-2.23,0-1.39.41-2.42,1.23-3.12.82-.69,2.06-1.04,3.7-1.04h4.1v-.65c0-.9-.2-1.53-.61-1.9-.41-.36-1.05-.55-1.94-.55-.78,0-1.34.13-1.69.4-.35.27-.54.6-.57,1h-3.46c.05-.78.31-1.49.77-2.13.46-.64,1.12-1.15,1.97-1.52.86-.37,1.89-.56,3.1-.56s2.2.17,3.08.52c.87.35,1.55.91,2.04,1.69s.73,1.81.73,3.09v5.27c0,.73.01,1.36.04,1.91s.07,1.08.14,1.6h-3.19c-.07-.38-.11-.67-.12-.87s-.01-.5-.01-.9c-.38.57-.96,1.06-1.73,1.47-.77.41-1.76.61-2.97.61ZM66.94,258.14c.55,0,1.09-.1,1.6-.3.51-.2.93-.51,1.25-.94.32-.42.48-.97.48-1.62v-.65h-3.45c-.66,0-1.17.15-1.55.45-.37.3-.56.71-.56,1.23,0,.55.19,1,.57,1.32.38.33.94.49,1.66.49Z"/>
    <path class="cls-2" d="M74.73,244l2.86-3.9h3.64l2.86,3.9h-3.12l-1.56-1.56-1.56,1.56h-3.12Z"/>
    <path class="cls-2" d="M91.36,260.79c-1.25,0-2.39-.26-3.42-.79-1.03-.53-1.84-1.32-2.44-2.36-.6-1.05-.9-2.35-.9-3.91v-.52c0-1.49.31-2.74.94-3.74.62-1,1.45-1.77,2.47-2.29,1.02-.52,2.14-.78,3.35-.78,1.3,0,2.4.22,3.31.66.91.44,1.61,1.04,2.09,1.79.48.75.76,1.6.83,2.53h-3.48c-.14-.64-.42-1.15-.84-1.52-.42-.37-1.06-.56-1.91-.56-.59,0-1.13.14-1.62.42-.49.28-.89.71-1.19,1.29-.3.58-.45,1.31-.45,2.19v.52c0,.97.14,1.76.43,2.38.29.62.68,1.07,1.17,1.35s1.05.43,1.68.43c.68,0,1.26-.18,1.74-.53.48-.35.82-.87,1.01-1.55h3.48c-.1.99-.43,1.86-.99,2.62-.55.76-1.28,1.35-2.18,1.75s-1.92.61-3.06.61Z"/>
    <path class="cls-2" d="M99.9,260.48v-18.18h3.43v6.31c.21-.35.5-.69.87-1.03.37-.34.84-.62,1.4-.84.56-.22,1.25-.34,2.07-.34,1.66,0,2.9.45,3.73,1.34.82.89,1.23,2.2,1.23,3.91v8.83h-3.46v-8.03c0-1.04-.21-1.82-.62-2.35-.42-.53-1.14-.79-2.18-.79-.71,0-1.29.14-1.74.43-.45.29-.78.67-.99,1.16-.21.49-.31,1-.31,1.56v8.03h-3.43Z"/>
    <path class="cls-2" d="M121.85,260.79c-1.25,0-2.39-.26-3.44-.77s-1.88-1.29-2.51-2.34-.94-2.37-.94-3.96v-.52c0-1.52.3-2.79.9-3.79.6-1,1.39-1.76,2.39-2.26,1-.5,2.11-.75,3.34-.75,2.16,0,3.81.57,4.94,1.71,1.13,1.14,1.69,2.8,1.69,4.96v1.46h-9.74c.03.81.21,1.48.53,1.99.32.51.73.88,1.23,1.12.5.23,1.04.35,1.61.35.88,0,1.55-.13,2-.39.45-.26.77-.64.96-1.14h3.14c-.28,1.42-.96,2.5-2.05,3.23-1.09.74-2.44,1.1-4.05,1.1ZM121.72,249.21c-.54,0-1.05.09-1.55.27s-.89.49-1.19.92c-.3.43-.47,1.01-.51,1.74h6.39c-.02-.78-.16-1.38-.44-1.81-.28-.42-.65-.72-1.12-.88s-1-.25-1.58-.25Z"/>
    <path class="cls-2" d="M135.41,260.79c-1.61,0-2.82-.45-3.64-1.35-.81-.9-1.22-2.31-1.22-4.23v-8.49h3.43v8.03c0,1.04.21,1.82.62,2.35.42.53,1.1.79,2.05.79.69,0,1.25-.15,1.66-.44.42-.29.73-.68.94-1.16.21-.48.31-.99.31-1.55v-8.03h3.46v13.77h-3.17v-2.03c-.33.62-.85,1.17-1.57,1.64-.72.47-1.68.7-2.87.7Z"/>
    <path class="cls-2" d="M146.14,260.48v-13.77h3.17v2.03c.17-.4.43-.77.77-1.12.34-.35.75-.64,1.23-.87s1.01-.35,1.58-.35c.33,0,.61.02.84.05s.39.06.45.08v3.06c-.17-.07-.39-.13-.66-.19-.27-.06-.63-.09-1.08-.09-.69,0-1.25.15-1.68.44-.42.29-.73.68-.92,1.17-.19.48-.29,1-.29,1.53v8.03h-3.43Z"/>
    <path class="cls-2" d="M168.74,265.99c-1.46,0-2.62-.18-3.49-.53-.87-.35-1.51-.85-1.91-1.48-.4-.63-.63-1.36-.7-2.2h3.48c.1.36.34.71.71,1.03.37.32,1.01.48,1.91.48,1.14,0,2-.28,2.58-.83.58-.55.87-1.39.87-2.49v-1.64c-.45.66-1.03,1.19-1.75,1.6-.72.41-1.55.61-2.48.61-1.2,0-2.23-.26-3.1-.78-.88-.52-1.55-1.29-2.03-2.32-.48-1.03-.71-2.31-.71-3.83v-.52c0-1.44.23-2.65.7-3.64.47-.99,1.15-1.74,2.04-2.26.89-.52,1.92-.78,3.08-.78s2.11.23,2.86.69c.74.46,1.28,1.01,1.61,1.65v-2.03h3.22v12.99c0,2.04-.57,3.6-1.7,4.68s-2.86,1.61-5.18,1.61ZM168.77,257.62c.69,0,1.29-.13,1.81-.39s.91-.65,1.2-1.18c.29-.53.43-1.18.43-1.96v-1.53c0-.71-.15-1.3-.44-1.78-.29-.48-.71-.84-1.23-1.09-.53-.25-1.11-.38-1.75-.38-.94,0-1.7.32-2.29.96-.59.64-.88,1.58-.88,2.81v.52c0,1.32.3,2.32.91,3,.61.68,1.36,1.03,2.26,1.03Z"/>
    <path class="cls-2" d="M182.85,260.79c-.97,0-1.8-.19-2.49-.56-.69-.37-1.22-.89-1.58-1.55-.36-.66-.55-1.4-.55-2.23,0-1.39.41-2.42,1.23-3.12.82-.69,2.06-1.04,3.7-1.04h4.1v-.65c0-.9-.2-1.53-.61-1.9-.41-.36-1.05-.55-1.94-.55-.78,0-1.34.13-1.69.4-.35.27-.54.6-.57,1h-3.46c.05-.78.31-1.49.77-2.13.46-.64,1.12-1.15,1.97-1.52.86-.37,1.89-.56,3.1-.56s2.2.17,3.08.52c.87.35,1.55.91,2.04,1.69s.73,1.81.73,3.09v5.27c0,.73.01,1.36.04,1.91s.07,1.08.14,1.6h-3.19c-.07-.38-.11-.67-.12-.87s-.01-.5-.01-.9c-.38.57-.96,1.06-1.73,1.47-.77.41-1.76.61-2.97.61ZM183.94,258.14c.55,0,1.09-.1,1.6-.3.51-.2.93-.51,1.25-.94.32-.42.48-.97.48-1.62v-.65h-3.45c-.66,0-1.17.15-1.55.45-.37.3-.56.71-.56,1.23,0,.55.19,1,.57,1.32.38.33.94.49,1.66.49Z"/>
    <path class="cls-2" d="M193.68,260.48v-13.77h3.17v2.03c.17-.4.43-.77.77-1.12.34-.35.75-.64,1.23-.87s1.01-.35,1.58-.35c.33,0,.61.02.84.05s.39.06.45.08v3.06c-.17-.07-.39-.13-.66-.19-.27-.06-.63-.09-1.08-.09-.69,0-1.25.15-1.68.44-.42.29-.73.68-.92,1.17-.19.48-.29,1-.29,1.53v8.03h-3.43Z"/>
    <path class="cls-2" d="M207.5,260.79c-.97,0-1.8-.19-2.49-.56-.69-.37-1.22-.89-1.58-1.55-.36-.66-.55-1.4-.55-2.23,0-1.39.41-2.42,1.23-3.12.82-.69,2.06-1.04,3.7-1.04h4.1v-.65c0-.9-.2-1.53-.61-1.9-.41-.36-1.05-.55-1.94-.55-.78,0-1.34.13-1.69.4-.35.27-.54.6-.57,1h-3.46c.05-.78.31-1.49.77-2.13.46-.64,1.12-1.15,1.97-1.52.86-.37,1.89-.56,3.1-.56s2.2.17,3.08.52c.87.35,1.55.91,2.04,1.69s.73,1.81.73,3.09v5.27c0,.73.01,1.36.04,1.91s.07,1.08.14,1.6h-3.19c-.07-.38-.11-.67-.12-.87s-.01-.5-.01-.9c-.38.57-.96,1.06-1.73,1.47-.77.41-1.76.61-2.97.61ZM208.59,258.14c.55,0,1.09-.1,1.6-.3.51-.2.93-.51,1.25-.94.32-.42.48-.97.48-1.62v-.65h-3.45c-.66,0-1.17.15-1.55.45-.37.3-.56.71-.56,1.23,0,.55.19,1,.57,1.32.38.33.94.49,1.66.49Z"/>
    <path class="cls-2" d="M218.33,260.48v-13.77h3.17v2.03c.33-.62.86-1.17,1.6-1.64.74-.47,1.74-.7,3-.7,1.66,0,2.9.45,3.73,1.34.82.89,1.23,2.2,1.23,3.91v8.83h-3.46v-8.05c0-1.04-.21-1.82-.62-2.34-.42-.52-1.14-.78-2.18-.78-.71,0-1.29.14-1.74.43-.45.29-.78.67-.99,1.14-.21.48-.31.99-.31,1.55v8.05h-3.43Z"/>
    <path class="cls-2" d="M239.64,260.64c-1.07,0-1.96-.15-2.65-.45-.69-.3-1.2-.79-1.53-1.47-.33-.68-.49-1.56-.49-2.65v-6.49h-1.82v-2.86h1.82v-3.12h3.43v3.12h3.33v2.86h-3.33v5.98c0,.78.14,1.34.43,1.68.29.34.82.51,1.6.51.52,0,1.04-.03,1.56-.08v2.86c-.33.03-.67.06-1.03.09-.35.03-.79.04-1.31.04Z"/>
    <path class="cls-2" d="M246.41,245.41c-.61,0-1.1-.19-1.49-.58s-.58-.89-.58-1.49.19-1.1.58-1.49.89-.58,1.49-.58,1.1.19,1.49.58.58.89.58,1.49-.19,1.1-.58,1.49-.89.58-1.49.58ZM244.7,260.48v-13.77h3.43v13.77h-3.43ZM77.7,260.48v-13.77h3.43v13.77h-3.43Z"/>
    <path class="cls-2" d="M257.72,260.79c-1.25,0-2.39-.26-3.44-.77s-1.88-1.29-2.51-2.34-.94-2.37-.94-3.96v-.52c0-1.52.3-2.79.9-3.79.6-1,1.39-1.76,2.39-2.26,1-.5,2.11-.75,3.34-.75,2.16,0,3.81.57,4.94,1.71,1.13,1.14,1.69,2.8,1.69,4.96v1.46h-9.74c.03.81.21,1.48.53,1.99.32.51.73.88,1.23,1.12.5.23,1.04.35,1.61.35.88,0,1.55-.13,2-.39.45-.26.77-.64.96-1.14h3.14c-.28,1.42-.96,2.5-2.05,3.23-1.09.74-2.44,1.1-4.05,1.1ZM257.59,249.21c-.54,0-1.05.09-1.55.27s-.89.49-1.19.92c-.3.43-.47,1.01-.51,1.74h6.39c-.02-.78-.16-1.38-.44-1.81-.28-.42-.65-.72-1.12-.88s-1-.25-1.58-.25Z"/>
  </g>
  <g>
    <path class="cls-1" d="M150.09,79.56c-.37-1.31-8.41-6.59-6.42-8.67,2.94-.63,5.89,5.8,8.02,5.8,3.3-1.37,4.64-5.99,8.67-5.8.33,4.45-5.51,5.91-7.7,9.31v15.41l1.28.65,13.16-11.25c1.15-1.89-1.06-7.81,1.94-7.67,1.5.07,1.37,5.31,1.63,6.36l5.11.03v2.56c-1.97.23-4.6-.5-6.41.34-1.53.7-10.35,8.52-12.22,10.25-.83.77-2.08,1.61-1.92,2.89,3.32.6,6.92-.55,9.95-.64,1.95-.06,3.82,1.26,6.29.51,2.18-.66,6.09-7.54,8.47-6.93.77.71,1.25.81.67,1.94-.75,1.45-6.31,5.24-6.07,6.64.98,1.36,7.82,7.15,5.73,8.75-4.08-.31-5.69-5.48-8.67-7.7h-15.09c2.46,2.13,9.97,10.86,12.21,11.87,2.15.97,7.52-1.05,6.09,2.9l-5.18.6-.28,5.18h-2.56s-.61-7.42-.61-7.42c-4.39-2.79-7.68-7.89-11.59-10.88-.65-.5-.81-1.24-1.93-.96v17.66c1.13.89,9.84,8.57,6.09,9.31l-7.14-6.37-7.94,6.09-1.02-1.69,7.44-6.37v-17.98c-4.98,5.44-13.79,9.75-12.28,18.22l-2.43.34-.34-5.11-5.09-.61c-1.63-3.62,3.03-2.2,5.05-2.57,1.96-.36,10.55-9.77,11.89-12.19h-15.73c-2.2,1.17-5.13,6.41-6.73,7.37-1.2.72-1.81.36-2.58-.64.38-3.78,7.53-5.71,5.17-9.65-.67-1.11-6.66-5.08-4.53-6.39,2.49-1.47,7.63,6.75,8.67,6.75h17.66c.28-1.12-.46-1.28-.96-1.93-.68-.89-10.39-10.55-11.06-10.93-2.74-1.57-7.72,1.09-7.24-3.19l5.17-.28c1.35-.94-.41-6.68,2.2-6.14,1.5.32.8,5.04,1.14,6.58.48,2.19,10,9.7,12.03,12.04v-16.37Z"/>
    <path class="cls-1" d="M159.08,184.55l-2.47-.1c-2.76-3.52,2.51-10.37,2.44-12.43-.03-.83-2.84-4.98-3.39-6.85-8.12-27.62,27.42-29.73,42.15-39.8,1.96-1.34,7.36-7.34,9.43-6.03.68.44,3.9,7.88,4.32,9.2,9.46,29.94-20.65,62.02-50.17,45.79-2.79,2.68-2.34,6.76-2.32,10.23ZM205.03,122.92c-.51.12-6.49,5.43-8.28,6.51-13.78,8.27-41.04,9.2-38.98,31.7.75,8.2,6.29,12.66,14.01,14.24,26.37,5.4,47.44-27,35.38-50.15-.39-.74-.99-2.57-2.13-2.31Z"/>
    <path class="cls-1" d="M92.37,116.56c1.9-1.19,7.11,4.63,8.97,5.96,14.83,10.61,50.66,12.08,42.65,40.2-.6,2.11-3.37,6.08-3.44,6.84-.12,1.29,5.92,10.23,2.13,13.05-3.25.67-1.23-9.55-4.53-10.91-26.9,15.68-55.72-11.8-51.49-39.97.32-2.14,4.51-14.43,5.69-15.17ZM137.66,168.26c6.24-6.23,5.92-17.91-.07-24.2-9.75-10.23-24.33-10.67-35.61-17.68-2.58-1.6-4.56-3.87-6.78-5.42-.54-.38-.64-.89-1.61-.63-9.22,16.38-3.61,37.83,11.99,48.03,8.72,5.7,24.07,7.88,32.08-.11Z"/>
    <path class="cls-1" d="M205.95,128.04c2.39,2.16-13.03,19.1-16.04,20.22,2.09,2.26,5.36,1.89,8.04,1,2.13-.71,2.9-3.16,4.77-.35-3.3,3.92-7.4,4.94-12.19,3.21-1.33-.48-2.26-2.24-3.81-1.3-4.82,4.41-12.39,7.59-16.95,12-1.28,1.24-4.82,7.73-6.2,6.31-.43-6.63,6.57-9.53,10.81-13.22-1.87-5.38-1.53-10.48.75-15.67,3.69.32.98,5.12.87,7.48-.08,1.75.85,4.03.41,5.99.51.05.96.03,1.47-.13,3.6-1.1,16.94-12.92,19.7-16.26,1.35-1.63,5.45-8.89,5.93-9.15.45-.25,2.31-.25,2.43-.14Z"/>
    <path class="cls-1" d="M123.11,151.15c.27-1.88.76-3.49.69-5.46-.06-1.82-2.68-8.04-.02-7.72,2.88.35,2.65,9.17,2.47,11.51-.1,1.33-.77,2.65-1.03,3.96.14.88,11.21,6.7,11.24,11.65,0,.75-1.14,2.1-1.48,2.11-.39,0-3.43-5.18-4.4-6.18-4.58-4.73-13.33-8.88-18.61-12.96-2.19,1.22-3.85,2.51-6.52,2.51-2.07,0-10.37-2.68-8.02-5.18,4.39.55,8.27,4.72,12.18.32-5.03-4.18-10.69-9.21-13.99-14.89-.86-1.48-3.45-5.38-.44-5.36l.98.32c2.91,5.95,7.25,11.07,12.17,15.44,2.46,2.19,9.8,8.09,12.48,9.35.78.37,1.31.83,2.29.6Z"/>
  </g>
</svg>