<?xml version="1.0" encoding="UTF-8"?>
<svg id="Calque_1" data-name="Calque 1" xmlns="http://www.w3.org/2000/svg" viewBox="0 0 300 300">
  <defs>
    <style>
      .cls-1 {
        fill: #fff;
      }

      .cls-2 {
        fill: #b10000;
      }
    </style>
  </defs>
  <circle class="cls-2" cx="150" cy="116.61" r="92.87"/>
  <g>
    <path class="cls-1" d="M132.05,148.02c6.44-.77,7.09,8.74,1.32,9.29-6.21.59-6.93-8.62-1.32-9.29ZM134.73,154.17c1.76-2.81-2.5-5.33-3.89-2.56-1.53,3.05,3.04,3.91,3.89,2.56Z"/>
    <g>
      <path class="cls-1" d="M164.88,147.39l.53-32.71c6.26.55,12.91,3.97,17.9,7.7,11.23,8.38,18.5,23.06,16.92,37.15l-1.61-.24-.42-.64c.74-13.99-6.49-27.86-18.02-35.53v24.27c4.95.08,8.15,5.08,7.96,9.76-.05,1.31-.49,3.35-2.18,2.13-.91-.66-.36-3.82-.63-5.18-.47-2.38-2.77-4.29-5.16-4.6v10.02h-2.11v-37.72c-3.09-2.08-6.86-3.82-10.55-4.48v42.21h-2.11v-10.02h-25.32v10.02h-2.11v-41.68l-10.55,2.64v39.04h-2.11v-10.02c-4.79,1.19-5.8,5.59-5.28,10.03h-2.11c-.81-5.18,1.04-12.34,7.38-11.61v-25.85c-12.9,5.26-18.11,19.45-19.52,32.45-.22,2.07,1,5.41-2.11,5.01v-7.65c0-11.41,8.84-25.3,18.51-31.08,3.77-2.26,12.42-5.63,16.71-5.48.64.02.81.19,1.19.69v31.39h24.8Z"/>
      <path class="cls-1" d="M171.21,86.2h12.93l.79.8-.79,1.31h-12.93c.06,7,.77,13.89-3.69,19.78-8.95,11.84-28.91,10.17-34.83-3.68-.26-.61-1.57-4.48-1.57-4.76v-11.34h-16.35v-2.11h16.35c1.02-14.47,8.04-22.13,22.97-21.13,12.8.86,17.08,9.21,17.12,21.13ZM133.75,86.2h34.56c.54-.39.57-.46.57-1.08.04-12.33-6.24-18.41-18.54-17.94-11.16.43-16.68,8.38-16.59,19.02ZM134.02,88.31l-.79.79v8.97c0,7.31,8.06,14.69,15.09,15.51,9.28,1.08,20.78-5.38,20.78-15.51v-8.97l-.79-.79h-34.29Z"/>
      <path class="cls-1" d="M172.14,148.01c6.19-.79,7,8.98.88,9.39s-6.96-8.61-.88-9.39ZM171.55,150.62c-1.75.59-1.37,5.72,2.3,3.9,2.33-1.15.67-4.9-2.3-3.9Z"/>
      <path class="cls-1" d="M171.55,150.62c2.98-1,4.63,2.75,2.3,3.9-3.68,1.82-4.05-3.31-2.3-3.9Z"/>
    </g>
    <path class="cls-1" d="M134.73,154.17c-.85,1.35-5.43.49-3.89-2.56,1.39-2.77,5.65-.25,3.89,2.56Z"/>
  </g>
  <g>
    <path class="cls-2" d="M97.94,245.88v-18.18h12.73v3.25h-8.81v4.03h8.03v3.12h-8.03v4.55h8.81v3.25h-12.73Z"/>
    <path class="cls-2" d="M118.21,246.04c-1.06,0-1.92-.14-2.6-.42-.67-.28-1.17-.76-1.48-1.46-.31-.69-.47-1.65-.47-2.88v-13.59h3.43v13.17c0,.88.13,1.48.39,1.79.26.31.76.47,1.51.47.19,0,.35,0,.49-.01s.28-.02.42-.04v2.88c-.09.02-.23.03-.44.05-.21.02-.43.03-.66.03h-.58Z"/>
    <path class="cls-2" d="M128.08,246.19c-1.25,0-2.39-.26-3.44-.77-1.05-.51-1.88-1.29-2.51-2.34-.62-1.05-.94-2.37-.94-3.96v-.52c0-1.52.3-2.79.9-3.79.6-1,1.39-1.76,2.39-2.26s2.11-.75,3.34-.75c2.16,0,3.81.57,4.94,1.71,1.12,1.14,1.69,2.8,1.69,4.96v1.45h-9.74c.04.81.21,1.48.53,1.99.32.51.73.88,1.23,1.12.5.23,1.04.35,1.61.35.88,0,1.55-.13,2-.39.45-.26.77-.64.96-1.14h3.14c-.28,1.42-.96,2.5-2.05,3.23-1.09.74-2.44,1.1-4.05,1.1ZM127.95,234.61c-.54,0-1.05.09-1.55.27-.49.18-.89.49-1.2.92s-.47,1.01-.51,1.74h6.39c-.02-.78-.16-1.38-.44-1.81-.28-.42-.65-.72-1.12-.88-.47-.16-1-.25-1.58-.25Z"/>
    <path class="cls-2" d="M140.91,245.88l-5.82-13.77h3.87l3.71,9.48,3.43-9.48h3.53l-5.3,13.77h-3.43Z"/>
    <path class="cls-2" d="M157.17,246.19c-1.25,0-2.39-.26-3.44-.77-1.05-.51-1.88-1.29-2.51-2.34-.62-1.05-.94-2.37-.94-3.96v-.52c0-1.52.3-2.79.9-3.79.6-1,1.39-1.76,2.39-2.26s2.11-.75,3.34-.75c2.16,0,3.81.57,4.94,1.71,1.12,1.14,1.69,2.8,1.69,4.96v1.45h-9.74c.04.81.21,1.48.53,1.99.32.51.73.88,1.23,1.12.5.23,1.04.35,1.61.35.88,0,1.55-.13,2-.39.45-.26.77-.64.96-1.14h3.14c-.28,1.42-.96,2.5-2.05,3.23-1.09.74-2.44,1.1-4.05,1.1ZM157.04,234.61c-.54,0-1.05.09-1.55.27-.49.18-.89.49-1.2.92s-.47,1.01-.51,1.74h6.39c-.02-.78-.16-1.38-.44-1.81-.28-.42-.65-.72-1.12-.88-.47-.16-1-.25-1.58-.25Z"/>
    <path class="cls-2" d="M170.73,246.19c-1.61,0-2.82-.45-3.64-1.35-.81-.9-1.22-2.31-1.22-4.23v-8.5h3.43v8.03c0,1.04.21,1.82.62,2.35.42.53,1.1.79,2.05.79.69,0,1.25-.15,1.66-.44.42-.29.73-.68.93-1.16s.31-.99.31-1.55v-8.03h3.46v13.77h-3.17v-2.03c-.33.62-.85,1.17-1.57,1.64-.72.47-1.68.7-2.87.7Z"/>
    <path class="cls-2" d="M181.46,245.88v-13.77h3.17v2.03c.17-.4.43-.77.77-1.12.34-.35.75-.64,1.23-.87.49-.23,1.01-.35,1.58-.35.33,0,.61.02.84.05.23.04.38.06.45.08v3.07c-.17-.07-.39-.13-.66-.19s-.63-.09-1.08-.09c-.69,0-1.25.15-1.68.44-.42.29-.73.68-.92,1.17-.19.49-.29,1-.29,1.53v8.03h-3.43Z"/>
    <path class="cls-2" d="M197.18,246.19c-1.13,0-2.07-.12-2.84-.35-.77-.23-1.4-.55-1.88-.96-.49-.41-.84-.87-1.08-1.39-.23-.52-.38-1.07-.43-1.64h3.43c.09.45.36.82.82,1.1.46.29,1.12.43,1.99.43,1,0,1.72-.14,2.16-.42s.65-.63.65-1.07c0-.31-.09-.57-.29-.77-.19-.2-.53-.37-1.01-.52-.48-.15-1.17-.29-2.05-.43-.75-.1-1.44-.25-2.09-.43-.65-.18-1.21-.44-1.69-.77s-.85-.75-1.12-1.25c-.27-.5-.4-1.11-.4-1.82s.23-1.43.69-2.07c.46-.63,1.13-1.13,2-1.51.87-.37,1.93-.56,3.16-.56,1.33,0,2.4.21,3.21.62.8.42,1.41.95,1.81,1.61.4.66.63,1.36.7,2.1h-3.43c-.14-.5-.41-.88-.8-1.14s-.89-.39-1.48-.39c-.87,0-1.49.13-1.86.4-.37.27-.56.6-.56,1s.2.74.61.96c.41.23,1.24.42,2.51.57.78.1,1.5.26,2.17.47.67.21,1.25.48,1.75.81.5.33.9.74,1.18,1.23.29.49.43,1.1.43,1.81,0,.83-.23,1.58-.69,2.23s-1.15,1.17-2.08,1.54c-.93.37-2.08.56-3.47.56Z"/>
    <path class="cls-2" d="M79.75,279.28v-18.96h3.22v2.03c.33-.62.87-1.17,1.61-1.64.74-.47,1.69-.7,2.83-.7,1.84,0,3.27.56,4.3,1.69,1.03,1.13,1.54,2.83,1.54,5.12v.52c0,1.58-.24,2.89-.71,3.94-.48,1.05-1.15,1.83-2.01,2.35s-1.91.78-3.12.78c-.94,0-1.76-.2-2.48-.61-.72-.41-1.3-.94-1.75-1.6v7.09h-3.43ZM86.6,271.49c.9,0,1.65-.34,2.26-1.03.61-.68.91-1.73.91-3.13v-.52c0-1.3-.29-2.27-.88-2.92s-1.35-.97-2.29-.97c-.64,0-1.22.12-1.75.38-.53.25-.94.63-1.23,1.13-.29.5-.44,1.13-.44,1.87v1.56c0,.81.14,1.49.43,2.04s.69.95,1.21,1.21,1.12.39,1.79.39Z"/>
    <path class="cls-2" d="M99.83,274.4c-.97,0-1.8-.19-2.49-.56-.69-.37-1.22-.89-1.58-1.54-.36-.66-.55-1.4-.55-2.23,0-1.39.41-2.42,1.23-3.12.82-.69,2.06-1.04,3.7-1.04h4.1v-.65c0-.9-.2-1.53-.61-1.9-.41-.36-1.05-.55-1.93-.55-.78,0-1.34.13-1.69.4-.35.27-.54.6-.57,1h-3.46c.05-.78.31-1.49.77-2.13.46-.64,1.12-1.15,1.97-1.52.86-.37,1.89-.56,3.1-.56s2.2.17,3.08.52c.87.35,1.55.91,2.04,1.69.48.78.73,1.81.73,3.09v5.27c0,.73.01,1.36.04,1.91.03.55.07,1.08.14,1.6h-3.2c-.07-.38-.11-.67-.12-.87s-.01-.5-.01-.9c-.38.57-.96,1.06-1.73,1.47-.77.41-1.76.61-2.97.61ZM100.92,271.75c.55,0,1.09-.1,1.6-.3s.93-.51,1.25-.94c.32-.42.48-.96.48-1.62v-.65h-3.45c-.66,0-1.17.15-1.55.45-.37.3-.56.71-.56,1.23,0,.55.19,1,.57,1.32.38.33.94.49,1.66.49Z"/>
    <path class="cls-2" d="M110.66,274.08v-13.77h3.17v2.03c.17-.4.43-.77.77-1.12.34-.35.75-.64,1.23-.87.49-.23,1.01-.35,1.58-.35.33,0,.61.02.84.05.23.04.38.06.45.08v3.07c-.17-.07-.39-.13-.66-.19s-.63-.09-1.08-.09c-.69,0-1.25.15-1.68.44-.42.29-.73.68-.92,1.17-.19.49-.29,1-.29,1.53v8.03h-3.43Z"/>
    <path class="cls-2" d="M126.9,274.24c-1.07,0-1.96-.15-2.65-.46-.69-.3-1.2-.79-1.53-1.47-.33-.67-.49-1.56-.49-2.65v-6.49h-1.82v-2.86h1.82v-3.12h3.43v3.12h3.33v2.86h-3.33v5.97c0,.78.14,1.34.43,1.68.29.34.82.51,1.6.51.52,0,1.04-.03,1.56-.08v2.86c-.33.03-.67.06-1.03.09-.35.03-.79.04-1.31.04Z"/>
    <path class="cls-2" d="M137.81,274.4c-1.25,0-2.39-.26-3.44-.77-1.05-.51-1.88-1.29-2.51-2.34-.62-1.05-.94-2.37-.94-3.96v-.52c0-1.52.3-2.79.9-3.79.6-1,1.39-1.76,2.39-2.26s2.11-.75,3.34-.75c2.16,0,3.81.57,4.94,1.71,1.12,1.14,1.69,2.8,1.69,4.96v1.45h-9.74c.04.81.21,1.48.53,1.99.32.51.73.88,1.23,1.12.5.23,1.04.35,1.61.35.88,0,1.55-.13,2-.39.45-.26.77-.64.96-1.14h3.14c-.28,1.42-.96,2.5-2.05,3.23-1.09.74-2.44,1.1-4.05,1.1ZM137.68,262.81c-.54,0-1.05.09-1.55.27-.49.18-.89.49-1.2.92s-.47,1.01-.51,1.74h6.39c-.02-.78-.16-1.38-.44-1.81-.28-.42-.65-.72-1.12-.88-.47-.16-1-.25-1.58-.25Z"/>
    <path class="cls-2" d="M146.64,274.08v-13.77h3.17v2.03c.33-.62.86-1.17,1.6-1.64.74-.47,1.74-.7,3-.7,1.66,0,2.91.45,3.73,1.34.82.89,1.23,2.2,1.23,3.91v8.83h-3.46v-8.05c0-1.04-.21-1.82-.62-2.34-.42-.52-1.14-.78-2.18-.78-.71,0-1.29.14-1.74.43-.45.29-.78.67-.99,1.14s-.31.99-.31,1.55v8.05h-3.43Z"/>
    <path class="cls-2" d="M166.46,274.4c-.97,0-1.8-.19-2.49-.56s-1.22-.89-1.58-1.54c-.36-.66-.54-1.4-.54-2.23,0-1.39.41-2.42,1.23-3.12s2.06-1.04,3.7-1.04h4.1v-.65c0-.9-.2-1.53-.61-1.9-.41-.36-1.05-.55-1.94-.55-.78,0-1.34.13-1.69.4-.35.27-.54.6-.57,1h-3.46c.05-.78.31-1.49.77-2.13.46-.64,1.12-1.15,1.97-1.52.86-.37,1.89-.56,3.1-.56s2.2.17,3.08.52c.88.35,1.55.91,2.04,1.69.49.78.73,1.81.73,3.09v5.27c0,.73.01,1.36.04,1.91.03.55.07,1.08.14,1.6h-3.19c-.07-.38-.11-.67-.12-.87s-.01-.5-.01-.9c-.38.57-.96,1.06-1.73,1.47-.77.41-1.76.61-2.97.61ZM167.55,271.75c.55,0,1.09-.1,1.6-.3s.93-.51,1.25-.94c.32-.42.48-.96.48-1.62v-.65h-3.46c-.66,0-1.17.15-1.55.45-.37.3-.56.71-.56,1.23,0,.55.19,1,.57,1.32.38.33.93.49,1.66.49Z"/>
    <path class="cls-2" d="M179.27,259.02c-.61,0-1.1-.19-1.49-.58s-.58-.89-.58-1.49.19-1.1.58-1.49.89-.58,1.49-.58,1.1.2,1.49.58.58.89.58,1.49-.19,1.1-.58,1.49-.89.58-1.49.58ZM177.55,274.08v-13.77h3.43v13.77h-3.43Z"/>
    <path class="cls-2" d="M184.33,274.08v-13.77h3.17v2.03c.17-.4.43-.77.77-1.12.34-.35.75-.64,1.23-.87.48-.23,1.01-.35,1.58-.35.33,0,.61.02.84.05.23.04.39.06.46.08v3.07c-.17-.07-.39-.13-.66-.19s-.63-.09-1.08-.09c-.69,0-1.25.15-1.67.44-.42.29-.73.68-.92,1.17-.19.49-.29,1-.29,1.53v8.03h-3.43Z"/>
    <path class="cls-2" d="M200.44,274.4c-1.25,0-2.39-.26-3.44-.77-1.05-.51-1.88-1.29-2.51-2.34-.62-1.05-.93-2.37-.93-3.96v-.52c0-1.52.3-2.79.9-3.79.6-1,1.39-1.76,2.39-2.26,1-.5,2.11-.75,3.34-.75,2.17,0,3.81.57,4.94,1.71,1.13,1.14,1.69,2.8,1.69,4.96v1.45h-9.74c.03.81.21,1.48.53,1.99.32.51.73.88,1.23,1.12.5.23,1.04.35,1.61.35.88,0,1.55-.13,2-.39s.77-.64.96-1.14h3.14c-.28,1.42-.96,2.5-2.05,3.23s-2.44,1.1-4.05,1.1ZM200.31,262.81c-.54,0-1.05.09-1.55.27-.49.18-.89.49-1.19.92-.3.43-.47,1.01-.51,1.74h6.39c-.02-.78-.17-1.38-.44-1.81-.28-.42-.65-.72-1.12-.88-.47-.16-1-.25-1.58-.25Z"/>
    <path class="cls-2" d="M214.85,274.4c-1.13,0-2.07-.12-2.84-.35-.77-.23-1.4-.55-1.88-.96-.49-.41-.84-.87-1.08-1.39-.23-.52-.38-1.07-.43-1.64h3.43c.09.45.36.82.82,1.1.46.29,1.12.43,1.99.43,1,0,1.72-.14,2.16-.42.43-.28.65-.63.65-1.07,0-.31-.1-.57-.29-.77-.19-.2-.53-.37-1.01-.52-.49-.15-1.17-.29-2.05-.43-.74-.1-1.44-.25-2.09-.43-.65-.18-1.21-.44-1.69-.77s-.85-.75-1.12-1.25-.4-1.11-.4-1.82.23-1.43.69-2.07c.46-.63,1.12-1.13,2-1.51.87-.37,1.93-.56,3.16-.56,1.33,0,2.4.21,3.21.62.81.42,1.41.95,1.81,1.61s.63,1.36.7,2.1h-3.43c-.14-.5-.41-.88-.81-1.14s-.89-.39-1.48-.39c-.87,0-1.49.13-1.86.4-.37.27-.56.6-.56,1s.2.74.61.96c.41.23,1.24.42,2.51.57.78.1,1.5.26,2.17.47.67.21,1.25.48,1.75.81.5.33.9.74,1.18,1.23.29.49.43,1.1.43,1.81,0,.83-.23,1.58-.69,2.23s-1.15,1.17-2.08,1.54-2.08.56-3.47.56Z"/>
  </g>
</svg>